<svg width="194" height="215" viewBox="0 0 194 215" fill="none" xmlns="http://www.w3.org/2000/svg">
<path fill-rule="evenodd" clip-rule="evenodd" d="M97 44.6753C78.456 44.6753 63.4231 59.6767 63.4231 78.1818C63.4231 96.6867 78.4561 111.688 97 111.688C115.544 111.688 130.577 96.6867 130.577 78.1818C130.577 59.6767 115.544 44.6753 97 44.6753ZM155.034 130.705C167.655 116.826 175.346 98.4 175.346 78.1818C175.346 35.0031 140.269 0 97 0C53.7307 0 18.6538 35.0031 18.6538 78.1818C18.6538 98.4 26.3446 116.826 38.9661 130.705C35.9046 132.995 32.9565 135.496 30.1441 138.209C11.3647 156.324 -2.31266e-05 182.571 0 215L44.7692 215C44.7692 193.446 52.0583 179.206 61.2597 170.33C70.7294 161.195 83.6508 156.364 97 156.364C110.349 156.364 123.271 161.195 132.74 170.33C141.942 179.206 149.231 193.446 149.231 215H194C194 182.571 182.635 156.324 163.856 138.209C161.043 135.496 158.095 132.995 155.034 130.705Z" fill="white"/>
<path d="M41.0385 74.4589H156.692L141.769 119.134H55.9615L41.0385 74.4589Z" fill="white"/>
<path d="M82.0769 67.013C86.1978 67.013 89.5385 63.6793 89.5385 59.5671C89.5385 55.4548 86.1978 52.1212 82.0769 52.1212C77.956 52.1212 74.6154 55.4548 74.6154 59.5671C74.6154 63.6793 77.956 67.013 82.0769 67.013Z" fill="white"/>
<path d="M111.923 67.013C116.044 67.013 119.385 63.6793 119.385 59.5671C119.385 55.4548 116.044 52.1212 111.923 52.1212C107.802 52.1212 104.462 55.4548 104.462 59.5671C104.462 63.6793 107.802 67.013 111.923 67.013Z" fill="white"/>
</svg>
