<svg width="26" height="29" viewBox="0 0 26 29" fill="none" xmlns="http://www.w3.org/2000/svg">
    <path fill-rule="evenodd" clip-rule="evenodd"
        d="M13 6C10.5147 6 8.5 8.01472 8.5 10.5C8.5 12.9853 10.5147 15 13 15C15.4852 15 17.5 12.9852 17.5 10.5C17.5 8.01472 15.4853 6 13 6ZM20.7777 17.554C22.4693 15.69 23.5 13.2153 23.5 10.5C23.5 4.701 18.7989 0 13 0C7.20102 0 2.5 4.701 2.5 10.5C2.5 13.2153 3.53073 15.69 5.22227 17.554C4.81195 17.8616 4.41685 18.1974 4.03993 18.5618C1.5231 20.9947 -3.09944e-06 24.5197 0 28.875L6 28.875C6 25.9803 6.97689 24.0678 8.21006 22.8757C9.47919 21.6489 11.2109 21 13 21C14.7891 21 16.5208 21.6489 17.7899 22.8757C19.0231 24.0678 20 25.9803 20 28.875H26C26 24.5197 24.4769 20.9947 21.9601 18.5618C21.5831 18.1974 21.188 17.8616 20.7777 17.554Z"
        fill="white" />
    <path d="M5.5 10H21L19 16H7.5L5.5 10Z" fill="white" />
    <path
        d="M11 9C11.5523 9 12 8.55228 12 8C12 7.44772 11.5523 7 11 7C10.4477 7 10 7.44772 10 8C10 8.55228 10.4477 9 11 9Z"
        fill="white" />
    <path
        d="M15 9C15.5523 9 16 8.55228 16 8C16 7.44772 15.5523 7 15 7C14.4477 7 14 7.44772 14 8C14 8.55228 14.4477 9 15 9Z"
        fill="white" />
</svg>